<?xml version="1.0" encoding="utf-8"?>
<!-- Generator: Adobe Illustrator 15.1.0, SVG Export Plug-In . SVG Version: 6.00 Build 0)  -->
<!DOCTYPE svg PUBLIC "-//W3C//DTD SVG 1.1//EN" "http://www.w3.org/Graphics/SVG/1.1/DTD/svg11.dtd">
<svg version="1.1" id="Warstwa_1" xmlns="http://www.w3.org/2000/svg" xmlns:xlink="http://www.w3.org/1999/xlink" x="0px" y="0px"
	 width="612px" height="612px" viewBox="0 0 612 612" enable-background="new 0 0 612 612" xml:space="preserve">
<g id="mail" display="none">
	<g display="inline">
		<path d="M306,378.1l-62.4-54.6l-178.4,153c6.5,6,15.2,9.8,24.9,9.8H522c9.6,0,18.3-3.7,24.8-9.8l-178.3-153L306,378.1z"/>
		<path d="M546.8,135.6c-6.5-6.1-15.2-9.8-24.9-9.8H90.1c-9.6,0-18.3,3.7-24.8,9.8L306,342L546.8,135.6z"/>
		<polygon points="53.8,157.5 53.8,456.8 227.9,308.8 		"/>
		<polygon points="384.1,308.8 558.2,456.8 558.2,157.4 		"/>
	</g>
</g>
<g id="Layer_2" display="none">
	<g display="inline">
		<path d="M116.9,134.6c-32.7,49.1-30.8,143.8,29.5,210.9c55.9,62.3,139.4,131.5,140.1,132.1c1.8,1.6,44.5,39.8,107.6,39.8
			c6.1,0,12.3-0.4,18.4-1.1c68.4-8.3,93.5-52.1,102.4-77.5c4.6-13.1-3.1-29.3-16.8-35.4l-80.3-35.7c-3.9-1.7-8.5-2.6-13.3-2.6
			c-9.9,0-19.9,3.7-26,9.6l-25.3,24.5c-3.8,3.6-10.4,6.1-16.6,6.1c-2.6,0-5-0.5-6.7-1.4c-17.1-8.6-43.9-25.7-74.9-58.5
			c-27.5-29.1-40.5-49.1-46.6-60.7c-3.4-6.5,0.2-17.8,5.5-23.1l22.5-22.5c9.4-9.4,13.6-26.6,9.6-39.2l-25.3-80.4
			c-3.9-12.2-16.8-24.9-32-24.9C167.6,95.3,138.1,102.8,116.9,134.6z M189.3,108.9c7.2,0,15.4,8,17.5,14.9l25.3,80.4
			c2.4,7.6-0.4,19.1-6.1,24.7l-22.5,22.5c-9.2,9.2-14.6,27.4-8.1,39.9c6.5,12.4,20.3,33.6,48.9,63.9c32.4,34.3,60.8,52.4,78.9,61.5
			c3.7,1.9,8.3,2.8,13.2,2.8c10,0,20.2-3.9,26.6-10.1l25.3-24.5c5-4.9,17-7,23.5-4.2l80.3,35.7c6.1,2.7,11.4,11,9.1,17.6
			c-7.8,22.3-29.9,60.7-90.5,68c-5.5,0.7-11.2,1-16.7,1c-56.9,0-96.5-34.8-98.2-36.3C295,466,211.9,397.1,157,335.9
			c-53.9-60.1-58.2-148.5-28.3-193.4C146.6,115.8,171.6,109.5,189.3,108.9z"/>
	</g>
</g>
<g id="flat2" display="none">
	<g id="Layer_8" display="inline">
		<path d="M557,93.3H55c-6.9,0-12.4,5.6-12.4,12.4v346.5c0,6.9,5.6,12.4,12.4,12.4h188.8v29.9c0,0.4,0.1,0.8,0.1,1.3h-27.1
			c-6.3,0-11.4,5.1-11.4,11.4s5.1,11.4,11.4,11.4h184.6c6.3,0,11.4-5.1,11.4-11.4s-5.1-11.4-11.4-11.4h-27.1c0-0.4,0.1-0.8,0.1-1.3
			v-29.9H557c6.9,0,12.4-5.6,12.4-12.4V105.8C569.5,98.9,563.9,93.3,557,93.3z M534.2,398c0,6.9-5.6,12.4-12.4,12.4H90.2
			c-6.9,0-12.4-5.6-12.4-12.4V135.3c0-6.9,5.6-12.4,12.4-12.4h431.5c6.9,0,12.4,5.6,12.4,12.4L534.2,398L534.2,398z"/>
	</g>
</g>
<g id="home" display="none">
	<path display="inline" d="M596.4,351.4L487.5,242.5V79.1h-72.6v90.7L306,61L15.6,351.4v18.1h72.6V551h181.5V442.1h72.6V551h181.5
		V369.5h72.6V351.4z"/>
</g>
<g id="flat" display="none">
	<g id="Desktop" display="inline">
		<g>
			<path d="M418.1,530.2h-32c-17.7,0-32-14.3-32-32v-48H258v48c0,17.7-14.3,32-32,32h-32c-8.9,0-16,7.2-16,16c0,8.9,7.2,16,16,16
				h224.2c8.9,0,16-7.2,16-16C434.1,537.3,426.9,530.2,418.1,530.2z M534.2,49.8H77.8c-15.5,0-28,13.4-28,30V388
				c0,16.6,12.6,30,28,30h456.3c15.5,0,28-13.4,28-30V79.8C562.2,63.3,549.6,49.8,534.2,49.8z M530.2,386.1H81.8V81.8h448.3
				L530.2,386.1L530.2,386.1z"/>
		</g>
	</g>
</g>
<g id="phone2" display="none">
	<path display="inline" d="M410.5,103.9c-10.5,0-19-8.5-19-19V61c0-10.5-8.5-19-19-19h-12.7c-10.5,0-19,8.5-19,19v23.9
		c0,10.5-8.5,19-19,19H201.5c-10.5,0-19,8.5-19,19V551c0,10.5,8.5,19,19,19h209.1c10.5,0,19-8.5,19-19V122.9
		C429.5,112.4,421,103.9,410.5,103.9z M224,472.2c0-10.5,8.5-19,19-19s19,8.5,19,19s-8.5,19-19,19S224,482.7,224,472.2z M243,390.2
		c10.5,0,19,8.5,19,19s-8.5,19-19,19s-19-8.5-19-19S232.5,390.2,243,390.2z M224,346.3c0-10.5,8.5-19,19-19s19,8.5,19,19
		s-8.5,19-19,19S224,356.8,224,346.3z M344.6,537.7H265c-5.3,0-9.5-4.2-9.5-9.5s4.2-9.5,9.5-9.5h79.6c5.3,0,9.5,4.2,9.5,9.5
		C354.1,533.4,349.9,537.7,344.6,537.7z M304.8,390.2c10.5,0,19,8.5,19,19s-8.5,19-19,19s-19-8.5-19-19S294.3,390.2,304.8,390.2z
		 M285.8,346.3c0-10.5,8.5-19,19-19s19,8.5,19,19s-8.5,19-19,19S285.8,356.8,285.8,346.3z M304.8,453.2c10.5,0,19,8.5,19,19
		s-8.5,19-19,19s-19-8.5-19-19S294.3,453.2,304.8,453.2z M366.6,491.2c-10.5,0-19-8.5-19-19s8.5-19,19-19s19,8.5,19,19
		S377.1,491.2,366.6,491.2z M366.6,428.2c-10.5,0-19-8.5-19-19s8.5-19,19-19s19,8.5,19,19S377.1,428.2,366.6,428.2z M366.6,365.3
		c-10.5,0-19-8.5-19-19s8.5-19,19-19s19,8.5,19,19S377.1,365.3,366.6,365.3z M397.5,272.3c0,10.5-8.5,19-19,19h-145
		c-10.5,0-19-8.5-19-19V167.5c0-10.5,8.5-19,19-19h144.9c10.5,0,19,8.5,19,19v104.8H397.5z"/>
</g>
<g id="phone" display="none">
	<path display="inline" d="M560.3,453.1c1.1,8.3-1.4,15.5-7.5,21.6l-71.7,71.1c-3.2,3.6-7.5,6.6-12.7,9.2
		c-5.2,2.5-10.3,4.1-15.4,4.9c-0.4,0-1.4,0.1-3.2,0.3c-1.8,0.2-4.1,0.3-7,0.3c-6.8,0-17.9-1.2-33.1-3.5c-15.3-2.3-34-8.1-56-17.2
		c-22.1-9.2-47.2-22.9-75.2-41.2c-28-18.3-57.8-43.5-89.5-75.5c-25.2-24.8-46-48.5-62.5-71.1s-29.8-43.6-39.9-62.8
		S69,252.6,64,236.9c-5-15.6-8.4-29.1-10.2-40.4s-2.5-20.2-2.2-26.7s0.5-10.1,0.5-10.8c0.7-5,2.3-10.2,4.9-15.4
		c2.5-5.2,5.6-9.4,9.2-12.7l71.7-71.7c5-5,10.8-7.5,17.2-7.5c4.7,0,8.8,1.3,12.4,4c3.6,2.7,6.6,6,9.2,10L234.2,175
		c3.2,5.7,4.1,12,2.7,18.9c-1.4,6.9-4.5,12.6-9.2,17.2l-26.4,26.4c-0.7,0.7-1.3,1.9-1.9,3.5c-0.5,1.6-0.8,3-0.8,4
		c1.4,7.5,4.7,16.2,9.7,25.9c4.3,8.6,11,19.1,19.9,31.5c9,12.4,21.7,26.7,38.3,42.8c16.2,16.5,30.5,29.4,43.1,38.5
		c12.6,9.2,23.1,15.9,31.5,20.2c8.4,4.3,14.9,6.9,19.4,7.8l6.7,1.3c0.7,0,1.9-0.3,3.5-0.8c1.6-0.5,2.8-1.2,3.5-1.9l30.7-31.3
		c6.5-5.7,14-8.6,22.6-8.6c6.1,0,11,1.1,14.6,3.2h0.5l104,61.4C554.4,440,558.9,445.9,560.3,453.1z"/>
</g>
<g id="smartphone" display="none">
	<path display="inline" d="M421,52H191c-19.2,0-34.8,15.7-34.8,34.8V197v218v110.3c0,19.2,15.7,34.8,34.8,34.8h230
		c19.2,0,34.8-15.7,34.8-34.8V415V197V86.8C455.8,67.6,440.1,52,421,52z M240.6,519.9h-37.5c-6.9,0-12.5-5.6-12.5-12.5
		c0-6.9,5.6-12.5,12.5-12.5h37.5c6.9,0,12.5,5.6,12.5,12.5C253.1,514.3,247.5,519.9,240.6,519.9z M240.6,472.2h-37.5
		c-6.9,0-12.5-5.6-12.5-12.5c0-6.9,5.6-12.5,12.5-12.5h37.5c6.9,0,12.5,5.6,12.5,12.5C253.1,466.6,247.5,472.2,240.6,472.2z
		 M240.6,424.4h-37.5c-6.9,0-12.5-5.6-12.5-12.5c0-6.9,5.6-12.5,12.5-12.5h37.5c6.9,0,12.5,5.6,12.5,12.5
		C253.1,418.8,247.5,424.4,240.6,424.4z M240.6,376.7h-37.5c-6.9,0-12.5-5.6-12.5-12.5c0-6.9,5.6-12.5,12.5-12.5h37.5
		c6.9,0,12.5,5.6,12.5,12.5C253.1,371.1,247.5,376.7,240.6,376.7z M324.8,519.9h-37.5c-6.9,0-12.5-5.6-12.5-12.5
		c0-6.9,5.6-12.5,12.5-12.5h37.5c6.9,0,12.5,5.6,12.5,12.5C337.3,514.3,331.7,519.9,324.8,519.9z M324.8,472.2h-37.5
		c-6.9,0-12.5-5.6-12.5-12.5c0-6.9,5.6-12.5,12.5-12.5h37.5c6.9,0,12.5,5.6,12.5,12.5C337.3,466.6,331.7,472.2,324.8,472.2z
		 M324.8,424.4h-37.5c-6.9,0-12.5-5.6-12.5-12.5c0-6.9,5.6-12.5,12.5-12.5h37.5c6.9,0,12.5,5.6,12.5,12.5
		C337.3,418.8,331.7,424.4,324.8,424.4z M324.8,376.7h-37.5c-6.9,0-12.5-5.6-12.5-12.5c0-6.9,5.6-12.5,12.5-12.5h37.5
		c6.9,0,12.5,5.6,12.5,12.5C337.3,371.1,331.7,376.7,324.8,376.7z M408.9,519.9h-37.5c-6.9,0-12.5-5.6-12.5-12.5
		c0-6.9,5.6-12.5,12.5-12.5h37.5c6.9,0,12.5,5.6,12.5,12.5C421.4,514.3,415.8,519.9,408.9,519.9z M408.9,472.2h-37.5
		c-6.9,0-12.5-5.6-12.5-12.5c0-6.9,5.6-12.5,12.5-12.5h37.5c6.9,0,12.5,5.6,12.5,12.5C421.4,466.6,415.8,472.2,408.9,472.2z
		 M408.9,424.4h-37.5c-6.9,0-12.5-5.6-12.5-12.5c0-6.9,5.6-12.5,12.5-12.5h37.5c6.9,0,12.5,5.6,12.5,12.5
		C421.4,418.8,415.8,424.4,408.9,424.4z M408.9,376.7h-37.5c-6.9,0-12.5-5.6-12.5-12.5c0-6.9,5.6-12.5,12.5-12.5h37.5
		c6.9,0,12.5,5.6,12.5,12.5C421.4,371.1,415.8,376.7,408.9,376.7z M422.2,322.8H189.8v-230h232.4V322.8z"/>
</g>
<g id="facebook" display="none">
	<path display="inline" d="M306,56C167.9,56,56,167.9,56,306c0,138.1,111.9,250,250,250c138.1,0,250-111.9,250-250
		C556,167.9,444.1,56,306,56z M370.6,306h-41v150h-56.2V306h-37.5v-51.7h37.5l-0.1-30.4c0-42.2,11.4-67.8,61.1-67.8h41.4v51.7h-25.9
		c-19.3,0-20.3,7.2-20.3,20.7l-0.1,25.9H376L370.6,306z"/>
</g>
<g id="pinterest" display="none">
	<path display="inline" d="M306,56C167.9,56,56,167.9,56,306c0,138.1,111.9,250,250,250c138.1,0,250-111.9,250-250
		C556,167.9,444.1,56,306,56z M325.5,373.6c-18.3-1.4-25.9-10.5-40.3-19.2c-7.9,41.3-17.5,80.9-46,101.6
		c-8.8-62.4,12.9-109.3,23-159.1c-17.2-29,2.1-87.2,38.3-72.8c44.6,17.7-38.7,107.6,17.3,118.8c58.3,11.7,82.2-101.3,46-138
		c-52.3-53.1-152.2-1.2-139.9,74.8c3,18.6,22.2,24.2,7.7,49.8c-33.5-7.4-43.5-33.8-42.2-69c2.1-57.6,51.8-97.9,101.6-103.5
		c63-7.1,122.2,23.1,130.3,82.4C430.5,306.3,392.8,378.8,325.5,373.6z"/>
</g>
<g id="youtube" display="none">
	<g display="inline">
		<path d="M306,56C167.9,56,56,167.9,56,306c0,138.1,111.9,250,250,250c138.1,0,250-111.9,250-250C556,167.9,444.1,56,306,56z
			 M459.6,362c-1.7,20.8-17.5,47.4-39.6,51.2c-70.8,5.5-154.7,4.8-228,0c-22.9-2.9-37.9-30.4-39.6-51.2c-3.6-43.7-3.6-68.6,0-112.3
			c1.7-20.8,17.1-48.2,39.6-50.7c72.5-6.1,156.8-4.8,228,0c25.5,0.9,37.9,27.2,39.6,48C463.1,290.7,463.1,318.3,459.6,362z"/>
		<polygon points="274.8,368.5 368.5,306 274.8,243.5 		"/>
	</g>
</g>
<g id="twiter" display="none">
	<path display="inline" d="M306,56C167.9,56,56,167.9,56,306c0,138.1,111.9,250,250,250c138.1,0,250-111.9,250-250
		C556,167.9,444.1,56,306,56z M430.4,249.9l0.2,8c0,81.4-61.9,175.1-175.1,175.1c-34.8,0-67.1-10.2-94.3-27.7
		c4.8,0.6,9.7,0.9,14.7,0.9c28.8,0,55.4-9.8,76.4-26.3c-26.9-0.5-49.7-18.3-57.5-42.8c3.8,0.7,7.6,1.1,11.6,1.1
		c5.6,0,11.1-0.7,16.2-2.1c-28.2-5.7-49.4-30.5-49.4-60.3V275c8.3,4.6,17.8,7.4,27.9,7.7c-16.5-11-27.4-29.9-27.4-51.2
		c0-11.3,3-21.8,8.3-30.9c30.3,37.3,75.7,61.8,126.9,64.3c-1.1-4.5-1.6-9.2-1.6-14c0-34,27.6-61.5,61.6-61.5
		c17.7,0,33.7,7.5,44.9,19.4c14-2.8,27.2-7.9,39.1-14.9c-4.6,14.4-14.3,26.4-27.1,34.1c12.4-1.5,24.3-4.8,35.3-9.7
		C452.9,230.4,442.4,241.3,430.4,249.9z"/>
</g>
<g id="gplus" display="none">
	<g display="inline">
		<path d="M306,56C167.9,56,56,167.9,56,306c0,138.1,111.9,250,250,250c138.1,0,250-111.9,250-250C556,167.9,444.1,56,306,56z
			 M236.3,474.2c-55.3,0-102-22.5-102-58.5c0-36.5,42.6-71.8,97.9-71.8l17.3-0.2c-7.6-7.3-13.6-16.4-13.6-27.5
			c0-6.6,2.1-13,5.1-18.6l-9.2,0.3c-45.5,0-75.9-32.3-75.9-72.4c0-39.2,42-73.1,86.7-73.1h99.7l-22.4,16.1h-31.6
			c21,8.1,32.1,32.5,32.1,57.6c0,21-11.7,39.2-28.1,52c-16.1,12.6-19.1,17.8-19.1,28.5c0,9.1,17.3,24.6,26.3,31
			c26.3,18.6,34.8,35.9,34.8,64.8C334.2,438.4,299.3,474.2,236.3,474.2z M431,275.3v62.4h-31.2v-62.4h-62.5v-31.8h62.5V181H431v62.5
			h62.5v31.8H431z"/>
		<path d="M267.5,357.2c-7.6-2.4-15.9-3.9-24.8-4c-38.3-0.4-72.5,23.3-72.5,51.8c0,29.1,27.6,53.3,65.9,53.3
			c53.8,0,72.5-22.8,72.5-51.8c0-3.5-0.4-6.9-1.2-10.3C303.2,379.8,288.3,371.6,267.5,357.2z"/>
		<path d="M284.6,228c-4.4-33.7-28.8-60.8-54.5-61.5c-25.7-0.8-42.9,25-38.4,58.8c4.4,33.7,28.8,61.7,54.5,62.4
			C271.8,288.5,289,261.8,284.6,228z"/>
	</g>
</g>
<g id="pdf" display="none">
	<g display="inline">
		<g>
			<defs>
				<rect id="SVGID_1_" x="-2.3" y="-2.3" width="616.5" height="616.5"/>
			</defs>
			<clipPath id="SVGID_2_">
				<use xlink:href="#SVGID_1_"  overflow="visible"/>
			</clipPath>
			<path clip-path="url(#SVGID_2_)" d="M201.2,314.4c0-13.4-9.3-21.5-25.8-21.5c-6.7,0-11.3,0.6-13.7,1.3v43.2
				c2.8,0.6,6.3,0.9,11,0.9C190.4,338.2,201.2,329.3,201.2,314.4"/>
		</g>
		<g>
			<defs>
				<rect id="SVGID_3_" x="-2.3" y="-2.3" width="616.5" height="616.5"/>
			</defs>
			<clipPath id="SVGID_4_">
				<use xlink:href="#SVGID_3_"  overflow="visible"/>
			</clipPath>
			<path clip-path="url(#SVGID_4_)" d="M303.1,293.3c-7.4,0-12.1,0.6-15,1.3v95.6c2.8,0.7,7.4,0.7,11.5,0.7
				c29.9,0.2,49.4-16.3,49.4-51.2C349.3,309.4,331.5,293.3,303.1,293.3"/>
		</g>
		<g>
			<defs>
				<rect id="SVGID_5_" x="-2.3" y="-2.3" width="616.5" height="616.5"/>
			</defs>
			<clipPath id="SVGID_6_">
				<use xlink:href="#SVGID_5_"  overflow="visible"/>
			</clipPath>
			<path clip-path="url(#SVGID_6_)" d="M498.4,237.1h-12v-57.8c0-0.4-0.1-0.7-0.1-1.1c0-2.3-0.8-4.5-2.3-6.3L387.8,62
				c0,0-0.1,0-0.1-0.1c-0.6-0.6-1.2-1.2-1.9-1.6c-0.2-0.1-0.4-0.3-0.6-0.4c-0.6-0.3-1.3-0.6-1.9-0.8c-0.2,0-0.3-0.1-0.5-0.2
				c-0.7-0.2-1.5-0.3-2.2-0.3H143.9c-10.8,0-19.6,8.8-19.6,19.6v158.9h-12c-15.4,0-28,12.5-28,28v145.5c0,15.4,12.5,28,28,28h12
				v99.6c0,10.8,8.8,19.6,19.6,19.6h322.9c10.8,0,19.6-8.8,19.6-19.6v-99.6h12c15.4,0,28-12.5,28-28V265.1
				C526.4,249.7,513.9,237.1,498.4,237.1 M143.9,78.2h226.7v100.1c0,5.4,4.4,9.8,9.8,9.8h86.4v49H143.9V78.2z M384.2,338.6
				c0,28-10.2,47.3-24.3,59.2c-15.4,12.8-38.8,18.9-67.4,18.9c-17.1,0-29.3-1.1-37.5-2.2V271c12.1-1.9,28-3,44.7-3
				c27.7,0,45.7,5,59.8,15.6C374.7,294.8,384.2,312.8,384.2,338.6 M129,415.2V271c10.2-1.7,24.5-3,44.7-3c20.4,0,34.9,3.9,44.7,11.7
				c9.3,7.4,15.6,19.5,15.6,33.8s-4.8,26.5-13.4,34.7c-11.3,10.6-28,15.4-47.5,15.4c-4.3,0-8.2-0.2-11.3-0.6v52.3L129,415.2
				L129,415.2z M466.9,532.8h-323v-94.3h322.9L466.9,532.8L466.9,532.8z M495.2,296.1H439v33.4h52.5v26.9H439v58.8h-33.2V269h89.3
				L495.2,296.1L495.2,296.1z"/>
		</g>
	</g>
</g>
<g id="scale" display="none">
	<g display="inline">
		<g>
			<defs>
				<rect id="SVGID_7_" x="-63.3" y="56.4" width="738.5" height="499.2"/>
			</defs>
			<clipPath id="SVGID_8_">
				<use xlink:href="#SVGID_7_"  overflow="visible"/>
			</clipPath>
			<path clip-path="url(#SVGID_8_)" d="M267.8,312.4c-1.9-1.9-4-2.8-6.4-2.8c-2.4,0-4.6,0.9-6.4,2.8l-92.5,92.5l-40.1-40.1
				c-3.5-3.5-7.7-5.3-12.5-5.3c-4.8,0-9,1.8-12.5,5.3s-5.3,7.7-5.3,12.5v124.8c0,4.8,1.8,9,5.3,12.5s7.7,5.3,12.5,5.3h124.8
				c4.8,0,9-1.8,12.5-5.3s5.3-7.7,5.3-12.5c0-4.8-1.8-9-5.3-12.5l-40.1-40.1l92.5-92.5c1.9-1.9,2.8-4,2.8-6.4c0-2.4-0.9-4.5-2.8-6.4
				L267.8,312.4z"/>
		</g>
		<g>
			<defs>
				<rect id="SVGID_9_" x="-63.3" y="56.4" width="738.5" height="499.2"/>
			</defs>
			<clipPath id="SVGID_10_">
				<use xlink:href="#SVGID_9_"  overflow="visible"/>
			</clipPath>
			<path clip-path="url(#SVGID_10_)" d="M514.6,97.4c-3.5-3.5-7.7-5.3-12.5-5.3H377.3c-4.8,0-9,1.8-12.5,5.3s-5.3,7.7-5.3,12.5
				c0,4.8,1.8,9,5.3,12.5l40.1,40.1L312.4,255c-1.9,1.9-2.8,4-2.8,6.4s0.9,4.6,2.8,6.4l31.8,31.8c1.9,1.9,4,2.8,6.4,2.8
				c2.4,0,4.5-0.9,6.4-2.8l92.5-92.5l40.1,40.1c3.5,3.5,7.7,5.3,12.5,5.3s9-1.8,12.5-5.3s5.3-7.7,5.3-12.5V109.9
				C519.9,105.1,518.2,100.9,514.6,97.4"/>
		</g>
	</g>
</g>
<g id="plus" display="none">
	<polygon display="inline" points="483.6,260.7 347.3,260.7 347.3,128.4 264.8,128.4 264.8,260.7 128.4,260.7 128.4,343.3 
		264.8,343.3 264.8,483.6 347.3,483.6 347.3,343.3 483.6,343.3 	"/>
</g>
<g id="minus" display="none">
	<polyline display="inline" points="264.8,260.7 128.4,260.7 128.4,343.1 264.8,343.1 293,343.1 304,343.1 347.3,343.1 483.6,343.1 
		483.6,260.7 347.3,260.7 	"/>
</g>
<g id="compas" display="none">
	<path display="inline" fill="#231F20" d="M466.6,466.6c88.6-88.6,88.6-232.7,0-321.3c-88.6-88.6-232.7-88.6-321.3,0
		c-88.6,88.6-88.6,232.7,0,321.3C233.9,555.2,378.1,555.2,466.6,466.6z M156.5,156.4c82.5-82.5,216.6-82.5,299.1,0
		s82.5,216.7,0,299.1c-82.5,82.5-216.7,82.5-299.1,0C74,373.1,74,238.9,156.5,156.4z"/>
	<path display="inline" fill="#231F20" d="M462,364.7l-137.2-99.4c-0.9-0.6-1.9-0.8-2.9-0.5c-0.1,0-0.2,0.1-0.3,0.1l-172.3-22.2
		l-0.8,2l140.3,101.6c0,0.3,0.1,0.5,0.2,0.7l0.2,0.4c0.5,0.9,1.4,1.5,2.4,1.7l168,21.6c1.1,0.1,2.2-0.3,2.9-1.3
		C463.7,367.9,463.4,365.7,462,364.7z M447.4,362.4L296.7,343l27.6-69.7L447.4,362.4z"/>
</g>
<g id="north" display="none">
	<path display="inline" d="M306,76.5C179.2,76.5,76.5,179.2,76.5,306S179.3,535.5,306,535.5c126.8,0,229.5-102.8,229.5-229.5
		C535.5,179.2,432.8,76.5,306,76.5 M332.7,504.9L306,478.2l-26.7,26.7c-89.4-12-160.2-82.8-172.2-172.2l26.7-26.7l-26.7-26.7
		c12-89.4,82.8-160.2,172.2-172.2l26.7,26.7l26.7-26.7c89.4,12,160.2,82.8,172.2,172.2L478.2,306l26.7,26.7
		C492.9,422.1,422.1,492.9,332.7,504.9 M298.4,333.7L140,260.4l173.6,17.9L472,351.6L298.4,333.7z"/>
	<path display="inline" d="M60,251.1L6.7,234l3-9.5l23.5-1.5c4.6-0.4,12.3-0.7,17.4-0.7l0.1-0.2c-5.7-1.5-15.2-3.7-25-6.8l-11.8-3.8
		l2.9-9.1L70,219.5l-3,9.5l-22.8,1.6c-5.1,0.4-12.6,0.6-17.8,0.3l-0.1,0.2c5.5,1.4,13.8,3.6,24.6,7.1l11.9,3.8L60,251.1z"/>
</g>
<g id="cookies">
	<g>
		<path fill="#DCDBDB" d="M166.3,345.6c0-4,0.2-8,0.6-12c-56.2-16.4-97.8-53.4-97.8-96.6c0-8.3,0.2-22.8,0.7-24.1
			c12.8,31.7,60.8,57,116.9,66l28.2-45.1c6.1-9.7,13.7-18.4,22.6-25.9c8.5-7.2,18.3-13.4,29-18.3c12.9-5.9,26.9-9.9,42-12.2
			c-1.6-2.2-2.5-4.8-2.5-7.7c0-7.3,6-13.3,13.3-13.3s13.3,6,13.3,13.3c0,2.1-0.5,4.1-1.3,5.8c1.9-0.1,3.7-0.1,5.6-0.1
			c29.5,0,60.5,6.2,90.6,18C427,119.9,339,60,230.7,60C122.1,60,33.9,120.3,33.9,194.2L33.8,253c0,59.6,57.4,110,136.5,127.3
			C167.7,368.6,166.3,357,166.3,345.6z M295.4,99.1c7.3,0,13.3,6,13.3,13.3c0,7.3-6,13.3-13.3,13.3s-13.3-6-13.3-13.3
			C282.1,105.2,288,99.1,295.4,99.1z M243.4,144.5c7.3,0,13.3,6,13.3,13.3c0,7.3-6,13.3-13.3,13.3c-7.3,0-13.3-6-13.3-13.3
			C230.1,150.5,236.1,144.5,243.4,144.5z M194,113.8c7.3,0,13.3,6,13.3,13.3c0,7.3-6,13.3-13.3,13.3s-13.3-6-13.3-13.3
			C180.7,119.8,186.8,113.8,194,113.8z M163.4,175.1c7.3,0,13.3,6,13.3,13.3c0,7.3-6,13.3-13.3,13.3c-7.3,0-13.3-6-13.3-13.3
			C150.1,181.2,156.1,175.1,163.4,175.1z M126.1,139.1c7.3,0,13.3,6,13.3,13.3c0,7.3-6,13.3-13.3,13.3s-13.3-6-13.3-13.3
			C112.8,145.2,118.8,139.1,126.1,139.1z"/>
		<path fill="#DCDBDB" d="M468.3,234.3c-13.4-8.4-27-15.4-40.7-21.2c-30.9-13-62-19.4-90.6-19.4c-46.3,0-85.8,16.8-106.6,49.9
			l-23.8,37.9l-7.5,12c-8.5,13.5-13.1,28.7-14.3,44.7c-1.1,14.8,0.8,30.2,5.4,45.8c13.5,46.1,50.5,93.5,104.4,127.3
			C338.2,538.5,385,552,426.3,552c45.9,0,85.1-16.7,105.8-49.6c0.3-0.5,30.3-48.3,31.4-50C602.8,389.7,560.2,291.9,468.3,234.3z
			 M467.2,376.3c0,7.3-6,13.3-13.3,13.3s-13.3-6-13.3-13.3s6-13.3,13.3-13.3S467.2,369.1,467.2,376.3z M449.9,279.1
			c7.3,0,13.3,6,13.3,13.3c0,7.3-6,13.3-13.3,13.3s-13.3-6-13.3-13.3C436.6,285.1,442.6,279.1,449.9,279.1z M392.6,343
			c0,7.3-6,13.3-13.3,13.3c-5,0-9.5-2.9-11.8-7.1c-1-1.9-1.6-4-1.6-6.2c0-7.3,6-13.3,13.3-13.3c3.4,0,6.6,1.3,8.9,3.6
			C390.9,335.7,392.6,339.2,392.6,343z M411.3,288.4c0,7.3-6,13.3-13.3,13.3c-7.3,0-13.3-6-13.3-13.3c0-7.3,6-13.3,13.3-13.3
			C405.3,275.1,411.3,281.1,411.3,288.4z M347.3,240.4c5.5,0,10.3,3.5,12.3,8.3c0.7,1.6,1,3.2,1,5c0,7.3-6,13.3-13.3,13.3
			c-4.5,0-8.5-2.4-10.9-5.9c-1.5-2.1-2.4-4.7-2.4-7.5C334,246.5,340,240.4,347.3,240.4z M511,470.2c-31,49.4-120.5,49-192.9,3.6
			c-36.6-23-64.8-54.8-79.6-87.1c-6.8-14.9-10.9-29.8-11.7-44.1c-0.8-16,2.4-31.1,10.5-44.1c3.1-4.9,7.9-12.3,10.8-16.6
			c1.3-1.9,2.2-3.2,2.6-3.4c-0.2,1.1-0.4,2.2-0.5,3.3c-1.9,17.2,4.2,37.5,16.3,58c7.7,13.2,18,26.5,30,39.3
			c15.2,16.1,33.5,31.1,53.5,43.7c62.1,38.9,139.4,52.4,174.1,27.2C524.1,450,515.4,463.2,511,470.2z M521.9,353.7
			c0,7.3-6,13.3-13.3,13.3s-13.3-6-13.3-13.3s6-13.3,13.3-13.3S521.9,346.4,521.9,353.7z"/>
	</g>
</g>
</svg>
